<?xml version="1.0" standalone="no"?><svg xmlns="http://www.w3.org/2000/svg" viewBox="0 0 1440 320"><path fill="#ffc7db" fill-opacity="1" d="M0,128L18.5,154.7C36.9,181,74,235,111,250.7C147.7,267,185,245,222,229.3C258.5,213,295,203,332,213.3C369.2,224,406,256,443,256C480,256,517,224,554,224C590.8,224,628,256,665,256C701.5,256,738,224,775,186.7C812.3,149,849,107,886,85.3C923.1,64,960,64,997,90.7C1033.8,117,1071,171,1108,197.3C1144.6,224,1182,224,1218,192C1255.4,160,1292,96,1329,106.7C1366.2,117,1403,203,1422,245.3L1440,288L1440,0L1421.5,0C1403.1,0,1366,0,1329,0C1292.3,0,1255,0,1218,0C1181.5,0,1145,0,1108,0C1070.8,0,1034,0,997,0C960,0,923,0,886,0C849.2,0,812,0,775,0C738.5,0,702,0,665,0C627.7,0,591,0,554,0C516.9,0,480,0,443,0C406.2,0,369,0,332,0C295.4,0,258,0,222,0C184.6,0,148,0,111,0C73.8,0,37,0,18,0L0,0Z"></path></svg>